# xmcd
#
# Track frame offsets:
#	150
#	9140
#	20203
#	31530
#	44862
#	55436
#	65719
#	78484
#	87964
#	98054
#	109239
#	119009
#	130971
#	142449
#	151282
#	159986
#	172347
#	182933
#	194117
#	205865
#	218641
#	227391
#	239150
#	251617
#	263869
#	275151
#	288562
#	300998
#
# Disc length: 4186 seconds
#
# Revision: 2
# Processed by: cddbd v1.5.2PL0 Copyright (c) Steve Scherf et al.
# Submitted via: EZCDAudioConverter 8.3.2.1
#
DISCID=b010581c
DTITLE=Vernon Oxford - Letme sing you a song
DYEAR=1960
DGENRE=country
TTITLE0=WATERMELON TIME IN GEORGIA
TTITLE1=ROLL BIG WHEEL ROLL
TTITLE2=WOMAN, LET ME SING YOU A SONG
TTITLE3=MIVE TO TOWN IN FALL
TTITLE4=NASHVILLE WOMAN
TTITLE5=GOIN´ HOME (VERSION 1)
TTITLE6=LET´S TAKE A COLD SHOWER
TTITLE7=FIELD OF FLOWERS
TTITLE8=HIDE
TTITLE9=STONE BY STONE
TTITLE10=BEHIND EVERY GOOD MAN THERE´S A WOMWN
TTITLE11=FÖRGETFULNESS FOR SALE
TTITLE12=BABY SISTER
TTITLE13=GOIN´ HOME (VERSION 2)
TTITLE14=HONKY TONK GIRLS
TTITLE15=BABIES, STOP YOUR CRYING
TTITLE16=THE BLUES COME IN
TTITLE17=TREAT YOURSELF RIGHT
TTITLE18=LITTLE SISTER THROW YOUR RED SHOES AWAY
TTITLE19=THE OLD FOLKS AT HOME
TTITLE20=THAT´S THE WAY I TALK
TTITLE21=TOUCH OF GODS HANDS
TTITLE22=COME BACK AND SEE US
TTITLE23=THIS WOMAN IS MINE
TTITLE24=MANSION ON THE HILL
TTITLE25=WEDDING BELLS
TTITLE26=DON´T LET A LITTLE THING LIKE THAT (STAND IN YOUR WAY)
TTITLE27=YOU WIN AGAIN
EXTD=
EXTT0=
EXTT1=
EXTT2=
EXTT3=
EXTT4=
EXTT5=
EXTT6=
EXTT7=
EXTT8=
EXTT9=
EXTT10=
EXTT11=
EXTT12=
EXTT13=
EXTT14=
EXTT15=
EXTT16=
EXTT17=
EXTT18=
EXTT19=
EXTT20=
EXTT21=
EXTT22=
EXTT23=
EXTT24=
EXTT25=
EXTT26=
EXTT27=
PLAYORDER=
